<mxfile host="app.diagrams.net" modified="2021-12-13T04:06:27.693Z" agent="5.0 (X11)" etag="-BG564VQ78GaA2O-iulo" version="15.9.4" type="github">
  <diagram id="C5RBs43oDa-KdzZeNtuy" name="Page-1">
    <mxGraphModel dx="1320" dy="515" grid="1" gridSize="10" guides="1" tooltips="1" connect="1" arrows="1" fold="1" page="1" pageScale="1" pageWidth="827" pageHeight="1169" math="0" shadow="0">
      <root>
        <mxCell id="WIyWlLk6GJQsqaUBKTNV-0" />
        <mxCell id="WIyWlLk6GJQsqaUBKTNV-1" parent="WIyWlLk6GJQsqaUBKTNV-0" />
        <mxCell id="QDkzDuCB9-zRcC7VNVcC-4" value="" style="edgeStyle=orthogonalEdgeStyle;rounded=0;orthogonalLoop=1;jettySize=auto;html=1;" parent="WIyWlLk6GJQsqaUBKTNV-1" source="QDkzDuCB9-zRcC7VNVcC-0" edge="1">
          <mxGeometry relative="1" as="geometry">
            <mxPoint x="470" y="65" as="targetPoint" />
          </mxGeometry>
        </mxCell>
        <mxCell id="SQxfqAyYS85XEqRzg-fd-20" value="" style="edgeStyle=orthogonalEdgeStyle;rounded=0;orthogonalLoop=1;jettySize=auto;html=1;" edge="1" parent="WIyWlLk6GJQsqaUBKTNV-1" source="QDkzDuCB9-zRcC7VNVcC-0" target="SQxfqAyYS85XEqRzg-fd-19">
          <mxGeometry relative="1" as="geometry" />
        </mxCell>
        <mxCell id="QDkzDuCB9-zRcC7VNVcC-0" value="Do u want to play" style="rhombus;whiteSpace=wrap;html=1;" parent="WIyWlLk6GJQsqaUBKTNV-1" vertex="1">
          <mxGeometry x="260" y="20" width="120" height="90" as="geometry" />
        </mxCell>
        <mxCell id="QDkzDuCB9-zRcC7VNVcC-5" value="Exit" style="ellipse;whiteSpace=wrap;html=1;" parent="WIyWlLk6GJQsqaUBKTNV-1" vertex="1">
          <mxGeometry x="470" y="40" width="100" height="50" as="geometry" />
        </mxCell>
        <mxCell id="SQxfqAyYS85XEqRzg-fd-0" value="No" style="text;html=1;align=center;verticalAlign=middle;resizable=0;points=[];autosize=1;strokeColor=none;fillColor=none;" vertex="1" parent="WIyWlLk6GJQsqaUBKTNV-1">
          <mxGeometry x="385" y="40" width="30" height="20" as="geometry" />
        </mxCell>
        <mxCell id="SQxfqAyYS85XEqRzg-fd-22" value="" style="edgeStyle=orthogonalEdgeStyle;rounded=0;orthogonalLoop=1;jettySize=auto;html=1;" edge="1" parent="WIyWlLk6GJQsqaUBKTNV-1" source="SQxfqAyYS85XEqRzg-fd-19" target="SQxfqAyYS85XEqRzg-fd-21">
          <mxGeometry relative="1" as="geometry" />
        </mxCell>
        <mxCell id="SQxfqAyYS85XEqRzg-fd-24" value="" style="edgeStyle=orthogonalEdgeStyle;rounded=0;orthogonalLoop=1;jettySize=auto;html=1;" edge="1" parent="WIyWlLk6GJQsqaUBKTNV-1" source="SQxfqAyYS85XEqRzg-fd-19" target="SQxfqAyYS85XEqRzg-fd-23">
          <mxGeometry relative="1" as="geometry" />
        </mxCell>
        <mxCell id="SQxfqAyYS85XEqRzg-fd-26" value="" style="edgeStyle=orthogonalEdgeStyle;rounded=0;orthogonalLoop=1;jettySize=auto;html=1;" edge="1" parent="WIyWlLk6GJQsqaUBKTNV-1" source="SQxfqAyYS85XEqRzg-fd-19" target="SQxfqAyYS85XEqRzg-fd-25">
          <mxGeometry relative="1" as="geometry" />
        </mxCell>
        <mxCell id="SQxfqAyYS85XEqRzg-fd-19" value="&lt;div&gt;Check both if card total&lt;/div&gt;&lt;div&gt;is 21&lt;br&gt;&lt;/div&gt;" style="rhombus;whiteSpace=wrap;html=1;" vertex="1" parent="WIyWlLk6GJQsqaUBKTNV-1">
          <mxGeometry x="260" y="160" width="120" height="80" as="geometry" />
        </mxCell>
        <mxCell id="SQxfqAyYS85XEqRzg-fd-29" value="" style="edgeStyle=orthogonalEdgeStyle;rounded=0;orthogonalLoop=1;jettySize=auto;html=1;" edge="1" parent="WIyWlLk6GJQsqaUBKTNV-1" source="SQxfqAyYS85XEqRzg-fd-21" target="SQxfqAyYS85XEqRzg-fd-28">
          <mxGeometry relative="1" as="geometry" />
        </mxCell>
        <mxCell id="SQxfqAyYS85XEqRzg-fd-21" value="Want another card" style="rhombus;whiteSpace=wrap;html=1;" vertex="1" parent="WIyWlLk6GJQsqaUBKTNV-1">
          <mxGeometry x="235" y="270" width="170" height="80" as="geometry" />
        </mxCell>
        <mxCell id="SQxfqAyYS85XEqRzg-fd-23" value="computer won" style="ellipse;whiteSpace=wrap;html=1;" vertex="1" parent="WIyWlLk6GJQsqaUBKTNV-1">
          <mxGeometry x="460" y="170" width="120" height="60" as="geometry" />
        </mxCell>
        <mxCell id="SQxfqAyYS85XEqRzg-fd-25" value="user won" style="ellipse;whiteSpace=wrap;html=1;" vertex="1" parent="WIyWlLk6GJQsqaUBKTNV-1">
          <mxGeometry x="60" y="170" width="120" height="60" as="geometry" />
        </mxCell>
        <mxCell id="SQxfqAyYS85XEqRzg-fd-27" value="No" style="text;html=1;align=center;verticalAlign=middle;resizable=0;points=[];autosize=1;strokeColor=none;fillColor=none;" vertex="1" parent="WIyWlLk6GJQsqaUBKTNV-1">
          <mxGeometry x="325" y="240" width="30" height="20" as="geometry" />
        </mxCell>
        <mxCell id="SQxfqAyYS85XEqRzg-fd-28" value="&lt;div&gt;Check both if card total&lt;/div&gt;&lt;div&gt;is 21&lt;br&gt;&lt;/div&gt;" style="rhombus;whiteSpace=wrap;html=1;" vertex="1" parent="WIyWlLk6GJQsqaUBKTNV-1">
          <mxGeometry x="260" y="390" width="120" height="80" as="geometry" />
        </mxCell>
      </root>
    </mxGraphModel>
  </diagram>
</mxfile>
